# xmcd CD database file
#
# Track frame offsets:
#	150
#	19080
#	33791
#	51505
#	75315
#	93830
#	110866
#	124161
#	139969
#	165624
#	179372
#	192723
#
# Disc length: 3928 seconds
#
# Revision: 2
# Processed by: cddbd v1.4b41PL1 Copyright (c) Steve Scherf et al.
# Submitted via: Feurio! 1.50.2ß - http://www.feurio.com
#
DISCID=a30f560c
DTITLE=Placebo - Without You I´m Nothing
DYEAR=1900
DGENRE=
TTITLE0=Pure Morning
TTITLE1=Brick Shithouse
TTITLE2=You Don`t Care About Us
TTITLE3=Ask For Answers
TTITLE4=Without You I`m Nothing
TTITLE5=Allergic (To Thoughts Of Mother Earth)
TTITLE6=The Crawl
TTITLE7=Every You Every Me
TTITLE8=My Sweet Prince
TTITLE9=Summer`s Gone
TTITLE10=Scared Of Girls
TTITLE11=Burger Queen
EXTD=
EXTT0=
EXTT1=
EXTT2=
EXTT3=
EXTT4=
EXTT5=
EXTT6=
EXTT7=
EXTT8=
EXTT9=
EXTT10=
EXTT11=
PLAYORDER=
